<svg width="22" height="33" viewBox="0 0 22 33" fill="none" xmlns="http://www.w3.org/2000/svg">
<path d="M16.6738 27.2705H6.91133C6.00383 27.2705 5.133 26.8855 4.51883 26.2163C3.90467 25.5472 3.59301 24.6488 3.66634 23.7413L4.42718 14.6113C4.45468 14.3272 4.35383 14.0522 4.16133 13.8413C3.96883 13.6305 3.703 13.5205 3.41884 13.5205H1.83301C1.45717 13.5205 1.14551 13.2088 1.14551 12.833C1.14551 12.4572 1.45717 12.1455 1.83301 12.1455H3.42801C4.09718 12.1455 4.72967 12.4297 5.17884 12.9155C5.42634 13.1905 5.60967 13.5113 5.7105 13.8688H17.1597C18.0855 13.8688 18.938 14.2355 19.5613 14.8955C20.1755 15.5647 20.4872 16.4355 20.4138 17.3613L19.9188 24.2363C19.818 25.9138 18.3513 27.2705 16.6738 27.2705ZM5.75634 15.2347L5.04134 23.8513C4.99551 24.383 5.16967 24.8872 5.52717 25.2813C5.88467 25.6755 6.37967 25.8863 6.91133 25.8863H16.6738C17.6272 25.8863 18.4888 25.0797 18.5622 24.1263L19.0572 17.2513C19.0938 16.7105 18.9197 16.1972 18.5622 15.8214C18.2047 15.4364 17.7097 15.2255 17.1688 15.2255H5.75634V15.2347Z" fill="#FAFAFA"/>
<path d="M14.8958 31.8542C13.8875 31.8542 13.0625 31.0292 13.0625 30.0208C13.0625 29.0125 13.8875 28.1875 14.8958 28.1875C15.9042 28.1875 16.7292 29.0125 16.7292 30.0208C16.7292 31.0292 15.9042 31.8542 14.8958 31.8542ZM14.8958 29.5625C14.6392 29.5625 14.4375 29.7642 14.4375 30.0208C14.4375 30.2775 14.6392 30.4792 14.8958 30.4792C15.1525 30.4792 15.3542 30.2775 15.3542 30.0208C15.3542 29.7642 15.1525 29.5625 14.8958 29.5625Z" fill="#FAFAFA"/>
<path d="M7.56283 31.8542C6.55449 31.8542 5.72949 31.0292 5.72949 30.0208C5.72949 29.0125 6.55449 28.1875 7.56283 28.1875C8.57116 28.1875 9.39616 29.0125 9.39616 30.0208C9.39616 31.0292 8.57116 31.8542 7.56283 31.8542ZM7.56283 29.5625C7.30616 29.5625 7.10449 29.7642 7.10449 30.0208C7.10449 30.2775 7.30616 30.4792 7.56283 30.4792C7.81949 30.4792 8.02116 30.2775 8.02116 30.0208C8.02116 29.7642 7.81949 29.5625 7.56283 29.5625Z" fill="#FAFAFA"/>
<path d="M19.25 19.0205H8.25C7.87417 19.0205 7.5625 18.7088 7.5625 18.333C7.5625 17.9572 7.87417 17.6455 8.25 17.6455H19.25C19.6258 17.6455 19.9375 17.9572 19.9375 18.333C19.9375 18.7088 19.6258 19.0205 19.25 19.0205Z" fill="#FAFAFA"/>
<path d="M13.6204 13.0467C13.4937 13.0467 13.3671 13.0001 13.2671 12.9001C13.0737 12.7067 13.0737 12.3867 13.2671 12.1934L16.9604 8.50008L13.2671 4.80674C13.0737 4.61341 13.0737 4.29341 13.2671 4.10008C13.4604 3.90674 13.7804 3.90674 13.9737 4.10008L18.0204 8.14674C18.2137 8.34008 18.2137 8.66008 18.0204 8.85341L13.9737 12.9001C13.8737 13.0001 13.7471 13.0467 13.6204 13.0467Z" fill="#FAFAFA"/>
<path d="M17.553 9H6.33301C6.05967 9 5.83301 8.77333 5.83301 8.5C5.83301 8.22667 6.05967 8 6.33301 8H17.553C17.8263 8 18.053 8.22667 18.053 8.5C18.053 8.77333 17.8263 9 17.553 9Z" fill="#FAFAFA"/>
</svg>
